<svg height="16.006" viewBox="0 0 20.008 16.006" width="20.008" xmlns="http://www.w3.org/2000/svg"><path d="m10 16a3 3 0 1 0 3 3 3 3 0 0 0 -3-3zm8-3h-2.4a.891.891 0 0 1 -.79-.569l-.61-1.862a.892.892 0 0 0 -.79-.569h-6.81a.891.891 0 0 0 -.79.569l-.621 1.863a.892.892 0 0 1 -.789.568h-2.4a2.007 2.007 0 0 0 -2 2v9a2.007 2.007 0 0 0 2 2h16.007a2.007 2.007 0 0 0 2-2v-9a2.007 2.007 0 0 0 -2-2zm-8 11a5 5 0 1 1 5-5 5 5 0 0 1 -5 5.005zm7.3-7.6a.7.7 0 1 1 .7-.7.7.7 0 0 1 -.693.7z" fill="#939393" transform="translate(0 -10)"/></svg>