<svg xmlns="http://www.w3.org/2000/svg" xmlns:xlink="http://www.w3.org/1999/xlink" width="22" height="22" viewBox="0 0 22 22"><defs><style>.a{fill:rgba(186,255,0,0.26);}.b{clip-path:url(#a);}.c{fill:#dd141d;}.d{fill:#575757;}</style><clipPath id="a"><rect class="a" width="22" height="22" transform="translate(-9248 859)"/></clipPath></defs><g class="b" transform="translate(9248 -859)"><g transform="translate(-9248.36 855.31)"><path class="c" d="M5.773,11.546a5.77,5.77,0,0,1-4.63-9.217l.57.57A4.976,4.976,0,0,0,8.649,9.835l.57.57A5.725,5.725,0,0,1,5.773,11.546ZM5.723,9.481a.4.4,0,0,1-.4-.4v-.4a1.709,1.709,0,0,1-1.252-1.64.4.4,0,1,1,.8,0,.9.9,0,0,0,.8.9.364.364,0,0,1,.056,0,.376.376,0,0,1,.081.009.9.9,0,0,0,.647-.308l.564.564a1.688,1.688,0,0,1-.9.505v.374A.4.4,0,0,1,5.723,9.481Zm4.666-.24h0l-.569-.569A4.975,4.975,0,0,0,2.877,1.729l-.57-.57a5.77,5.77,0,0,1,9.238,4.614A5.723,5.723,0,0,1,10.39,9.24Zm-3.314-4.4a.4.4,0,0,1-.4-.4A.9.9,0,0,0,5.049,3.9l-.566-.566A1.691,1.691,0,0,1,5.324,2.8V2.415a.4.4,0,0,1,.8,0v.363A1.711,1.711,0,0,1,7.473,4.442.4.4,0,0,1,7.075,4.839Z" transform="translate(5.527 4.803)"/><path class="d" d="M19.035,327.942l-3.118,1.473a2.54,2.54,0,0,0-2.165-1.336L10.873,328a3.04,3.04,0,0,1-1.308-.338l-.293-.152a5.167,5.167,0,0,0-4.786.005l.018-.664a.4.4,0,0,0-.387-.409L.96,326.356a.4.4,0,0,0-.409.387L.36,333.671a.4.4,0,0,0,.387.409l3.157.087h.011a.4.4,0,0,0,.4-.387l.009-.331.82-.439a1.407,1.407,0,0,1,1.05-.115l4.9,1.375.026.006a5.241,5.241,0,0,0,1.076.111,5.312,5.312,0,0,0,2.219-.484.373.373,0,0,0,.049-.027l7.1-4.593a.4.4,0,0,0,.13-.53A2.011,2.011,0,0,0,19.035,327.942ZM1.167,333.295l.169-6.132,2.361.065-.169,6.132Zm12.885-.1a4.514,4.514,0,0,1-2.76.308l-4.884-1.371a2.2,2.2,0,0,0-1.641.179l-.419.224.112-4.077a4.376,4.376,0,0,1,4.446-.237l.293.152a3.845,3.845,0,0,0,1.653.427l2.879.079a1.746,1.746,0,0,1,1.659,1.391l-4.288-.118a.4.4,0,0,0-.022.8l4.732.13h.011a.4.4,0,0,0,.4-.387,2.526,2.526,0,0,0-.038-.516l3.2-1.511.009,0a1.216,1.216,0,0,1,1.375.193Zm0,0" transform="translate(0 -310.612)"/><path class="d" d="M.993,12.951V1.233C.993.552.771,0,.5,0S0,.552,0,1.233V12.951c0,.681.222,1.233.5,1.233S.993,13.632.993,12.951Zm0,0" transform="translate(5.825 5.823) rotate(-45)"/></g></g></svg>