<svg xmlns="http://www.w3.org/2000/svg" width="21.441" height="21.441" viewBox="0 0 21.441 21.441"><defs><style>.a{fill:#fff;}</style></defs><path class="a" d="M11.064,218.66a6.612,6.612,0,0,1-3.443,1.224,1.682,1.682,0,0,1,.175.738A1.7,1.7,0,0,1,6.335,222.3v.511a.487.487,0,0,1-.975,0v-.487H4.386a.487.487,0,1,1,0-.974H6.091a.73.73,0,1,0,0-1.46H5.6a1.7,1.7,0,0,1-.85-3.171,6.166,6.166,0,0,1,2.458-2.971,5.839,5.839,0,1,0,4.483,5.676,5.749,5.749,0,0,0-.112-1.1C11.413,218.43,11.24,218.538,11.064,218.66Z" transform="translate(0 -203.827)"/><path class="a" d="M125.847.032a.487.487,0,0,0-.475.071,13.292,13.292,0,0,1-3.257,1.866c-.343.108-.825.242-1.379.4-2.645.739-4.895,1.411-5.641,2.156-.169.169-.685.684-1.269,3.666a.484.484,0,0,0,.1.406.464.464,0,0,0,.382.174l.152-.008a6.767,6.767,0,0,1,2.767.586.5.5,0,0,0,.382.006.484.484,0,0,0,.268-.27l.357-.891c.266-.076.693-.2,1.027-.332a3.786,3.786,0,0,0,.345.164,2.76,2.76,0,0,1,.593.32,7.711,7.711,0,0,1-3,1.913c-.891.359-2.682,1.777-2.933,3.012a1.254,1.254,0,0,0,.335,1.191,2.227,2.227,0,0,0,1.618.622,5.614,5.614,0,0,0,2.9-1.053,7.873,7.873,0,0,1,3.181-1.377c.136-.013.266-.019.393-.025a4.335,4.335,0,0,0,2.771-1.04,6.065,6.065,0,0,0,1.572-1.926,7.233,7.233,0,0,1,2.771-2.914.487.487,0,0,0,.243-.421A6.941,6.941,0,0,0,125.847.032Z" transform="translate(-108.617 0)"/></svg>