<svg xmlns="http://www.w3.org/2000/svg" xmlns:xlink="http://www.w3.org/1999/xlink" width="22" height="22" viewBox="0 0 22 22"><defs><style>.a{fill:#e0eeff;}.b{clip-path:url(#a);}.c{fill:#575757;}.d{fill:#dd141d;}</style><clipPath id="a"><rect class="a" width="22" height="22" transform="translate(-9206 957)"/></clipPath></defs><g class="b" transform="translate(9206 -957)"><g transform="translate(-9206 957)"><path class="c" d="M80.063,74.754A.358.358,0,0,0,80.1,74.6V65.433a1.467,1.467,0,1,0,0-2.933H63.967a1.467,1.467,0,0,0,0,2.933V74.6a.367.367,0,0,0,.367.367h2.933v5.5a2.57,2.57,0,0,0,2.567,2.567h4.573a3.316,3.316,0,0,0,2.829-1.6l2.983-4.971A1.441,1.441,0,0,0,80.063,74.754Zm-3.263.212h.9l-.9,1.357ZM64.7,72.033H79.367v.733H64.7Zm16.133-8.067a.733.733,0,0,1-.733.733V63.233A.733.733,0,0,1,80.833,63.967Zm-1.467-.733V71.3H64.7V63.233Zm-16.133.733a.733.733,0,0,1,.733-.733V64.7A.733.733,0,0,1,63.233,63.967ZM64.7,74.233V73.5H79.367v.733Zm14.889,1.85-2.982,4.97a2.58,2.58,0,0,1-2.2,1.247H69.833A1.836,1.836,0,0,1,68,80.467v-5.5h1.467v1.467H70.2V74.967h1.467v1.467H72.4V74.967h1.467v1.467H74.6V74.967h1.467v2.2h-1.1a3.3,3.3,0,0,0-3.3,3.3H72.4A2.57,2.57,0,0,1,74.967,77.9h1.467a.367.367,0,0,0,.305-.162l1.621-2.432a.728.728,0,0,1,1.23.778Zm0,0" transform="translate(-61.033 -61.033)"/><path class="c" d="M21.633,0H.367A.367.367,0,0,0,0,.367V5.5a.367.367,0,0,0,.367.367H2.2V5.133H.733V.733H21.267v4.4H19.8v.733h1.833A.367.367,0,0,0,22,5.5V.367A.367.367,0,0,0,21.633,0Zm0,0"/><path class="d" d="M187.867,130.5a.733.733,0,0,1,.733.733.367.367,0,0,0,.367.367h10.267a.367.367,0,0,0,.367-.367.733.733,0,0,1,.733-.733.367.367,0,0,0,.367-.367v-3.667a.367.367,0,0,0-.367-.367.733.733,0,0,1-.733-.733.367.367,0,0,0-.367-.367H188.967a.367.367,0,0,0-.367.367.733.733,0,0,1-.733.733.367.367,0,0,0-.367.367v3.667A.367.367,0,0,0,187.867,130.5Zm4.033-2.2a2.226,2.226,0,1,1,2.2,2.567A2.407,2.407,0,0,1,191.9,128.3Zm7.013-2.567a1.473,1.473,0,0,0,1.054,1.054v3.025a1.473,1.473,0,0,0-1.054,1.054H195.94a3.559,3.559,0,0,0,0-5.133Zm-10.679,1.054a1.473,1.473,0,0,0,1.054-1.054h2.973a3.559,3.559,0,0,0,0,5.133h-2.973a1.473,1.473,0,0,0-1.054-1.054Zm0,0" transform="translate(-183.1 -122.067)"/><path class="d" d="M265.625,250h.733v.733h-.733Zm0,0" transform="translate(-259.392 -244.133)"/><path class="d" d="M640.625,250h.733v.733h-.733Zm0,0" transform="translate(-625.592 -244.133)"/><path class="d" d="M31.983,578.125H31.25a2.57,2.57,0,0,0,2.567,2.567v-.733A1.836,1.836,0,0,1,31.983,578.125Zm0,0" transform="translate(-30.517 -564.558)"/></g></g></svg>