<svg xmlns="http://www.w3.org/2000/svg" width="19.767" height="21.79" viewBox="0 0 19.767 21.79"><defs><style>.a{fill:#575757;}.b{fill:#dd141d;}</style></defs><g transform="translate(9201 -858)"><path class="a" d="M7.253,13.995A7.253,7.253,0,0,1,2.124,1.614,7.21,7.21,0,0,1,4.569,0a8.036,8.036,0,0,0,.115.939A6.344,6.344,0,1,0,13.563,7.42a7.991,7.991,0,0,0,.925-.173,7.253,7.253,0,0,1-7.235,6.748Zm0-2.72a.454.454,0,0,1-.453-.453v-.505A2.043,2.043,0,0,1,5.213,8.329a.453.453,0,0,1,.907,0A1.133,1.133,0,1,0,7.253,7.2,2.038,2.038,0,0,1,5.78,3.746a8.043,8.043,0,0,0,.544.761,1.133,1.133,0,0,0,.929,1.782,2.04,2.04,0,0,1,.453,4.028v.505A.454.454,0,0,1,7.253,11.275Z" transform="translate(-9201 865.796)"/><g transform="translate(-9195.738 858)"><path class="a" d="M7.253,14.505A7.253,7.253,0,0,1,2.124,2.124,7.253,7.253,0,0,1,12.381,12.381a7.2,7.2,0,0,1-5.128,2.124Zm0-13.6A6.346,6.346,0,1,0,13.6,7.253,6.353,6.353,0,0,0,7.253.907Z" transform="translate(0 0)"/><path class="b" d="M186.04,100.08a1.133,1.133,0,1,1,1.133-1.133.453.453,0,1,0,.907,0,2.043,2.043,0,0,0-1.587-1.988v-.5a.453.453,0,0,0-.907,0v.5a2.04,2.04,0,0,0,.453,4.028,1.133,1.133,0,1,1-1.133,1.133.453.453,0,1,0-.907,0,2.043,2.043,0,0,0,1.587,1.988v.5a.453.453,0,1,0,.907,0v-.5a2.04,2.04,0,0,0-.453-4.028Z" transform="translate(-178.787 -93.28)"/></g><path class="b" d="M2.04,7.529a.454.454,0,0,1-.453-.453v-.5A2.043,2.043,0,0,1,0,4.582a.453.453,0,0,1,.907,0A1.133,1.133,0,1,0,2.04,3.449,2.038,2.038,0,0,1,.567,0a8.044,8.044,0,0,0,.544.761A1.132,1.132,0,0,0,2.04,2.542,2.04,2.04,0,0,1,2.493,6.57v.5A.454.454,0,0,1,2.04,7.529Z" transform="translate(-9195.787 869.542)"/></g></svg>