<svg id="Capa_1" data-name="Capa 1" xmlns="http://www.w3.org/2000/svg" viewBox="0 0 66.18 134.87"><defs><style>.cls-1{fill:#575757;}.cls-2{fill:#fff;}.cls-3{isolation:isolate;}.cls-4{fill:#444;}.cls-5{fill:#f52932;}.cls-6{fill:#fafafa;}.cls-7{opacity:0.8;}.cls-8{fill:#f4c855;}.cls-9{fill:#dfab4d;}.cls-10{fill:#6e6e6e;}.cls-11{fill:#939393;}</style></defs><path class="cls-1" d="M55.68,134.87l-45.76-.21a10,10,0,0,1-9.92-10L.49,9.93A10,10,0,0,1,10.49,0h0L56.26.21a10,10,0,0,1,9.92,10L65.7,124.94a10,10,0,0,1-10,9.93Z" transform="translate(0 0)"/><path class="cls-2" d="M56.19,4.17l-8.87,0a2.2,2.2,0,0,0-2.16,2.24h0V8A2.19,2.19,0,0,1,43,10.22h0l-17.3-.08a2.2,2.2,0,0,1-2.14-2.26V6.27A2.21,2.21,0,0,0,21.41,4H18.29L10.53,4a7,7,0,0,0-7,7h0L3,122.89a7,7,0,0,0,7,7l45.67.21a7,7,0,0,0,7-7h0l.47-112A7,7,0,0,0,56.19,4.17Z" transform="translate(0 0)"/><g class="cls-3"><g class="cls-3"><path class="cls-4" d="M11.53,25.62h-.88V28h-.58V25.62H9.21v-.48h2.32Z" transform="translate(0 0)"/><path class="cls-4" d="M12.91,27h-.46v1h-.59V25.14h1.06a1.18,1.18,0,0,1,.77.23A.75.75,0,0,1,14,26a.91.91,0,0,1-.13.49.85.85,0,0,1-.38.31L14.07,28v0h-.62Zm-.46-.48h.47a.47.47,0,0,0,.34-.11.41.41,0,0,0,.12-.31.48.48,0,0,0-.11-.32.52.52,0,0,0-.35-.11h-.47Z" transform="translate(0 0)"/><path class="cls-4" d="M16,27.4H15l-.2.59h-.62l1.06-2.85h.54L16.84,28h-.63Zm-.87-.47h.71l-.36-1.07Z" transform="translate(0 0)"/><path class="cls-4" d="M19.42,28h-.59l-1.14-1.87V28H17.1V25.14h.59L18.83,27V25.14h.59Z" transform="translate(0 0)"/><path class="cls-4" d="M21.4,27.24a.31.31,0,0,0-.11-.25,1.36,1.36,0,0,0-.43-.19,2.9,2.9,0,0,1-.48-.2.77.77,0,0,1-.48-.7.67.67,0,0,1,.13-.41.76.76,0,0,1,.37-.28A1.35,1.35,0,0,1,21,25.1a1.19,1.19,0,0,1,.54.12.81.81,0,0,1,.37.31A.77.77,0,0,1,22,26H21.4a.38.38,0,0,0-.12-.3.51.51,0,0,0-.34-.11.55.55,0,0,0-.34.09.29.29,0,0,0-.12.24.28.28,0,0,0,.14.23,1.32,1.32,0,0,0,.41.18,1.71,1.71,0,0,1,.73.37.77.77,0,0,1,.23.56.68.68,0,0,1-.28.58A1.23,1.23,0,0,1,21,28a1.46,1.46,0,0,1-.6-.12.91.91,0,0,1-.41-.33.88.88,0,0,1-.14-.49h.59c0,.32.18.47.56.47a.54.54,0,0,0,.33-.08A.3.3,0,0,0,21.4,27.24Z" transform="translate(0 0)"/><path class="cls-4" d="M24.1,26.83H23V28h-.58V25.14h1.85v.48H23v.73H24.1Z" transform="translate(0 0)"/><path class="cls-4" d="M26.29,26.76H25.16v.76h1.32V28h-1.9V25.14h1.9v.48H25.16v.68h1.13Z" transform="translate(0 0)"/><path class="cls-4" d="M27.88,27h-.47v1h-.58V25.14h1.05a1.19,1.19,0,0,1,.78.23.78.78,0,0,1,.28.63.91.91,0,0,1-.13.49.85.85,0,0,1-.38.31L29,28v0h-.63Zm-.47-.48h.48a.47.47,0,0,0,.34-.11.41.41,0,0,0,.12-.31.48.48,0,0,0-.11-.32.53.53,0,0,0-.36-.11h-.47Z" transform="translate(0 0)"/><path class="cls-4" d="M31.09,26.76H30v.76h1.32V28H29.38V25.14h1.9v.48H30v.68h1.12Z" transform="translate(0 0)"/><path class="cls-4" d="M33.94,28h-.58l-1.14-1.87V28h-.59V25.14h.59L33.36,27V25.14h.58Z" transform="translate(0 0)"/><path class="cls-4" d="M36.69,27a1,1,0,0,1-.34.72,1.17,1.17,0,0,1-.81.27,1.1,1.1,0,0,1-.86-.37,1.51,1.51,0,0,1-.31-1v-.18a1.81,1.81,0,0,1,.14-.72,1.1,1.1,0,0,1,.42-.48,1.15,1.15,0,0,1,.62-.17,1.13,1.13,0,0,1,.79.27,1.06,1.06,0,0,1,.35.74h-.58a.62.62,0,0,0-.16-.4.58.58,0,0,0-.4-.12.51.51,0,0,0-.44.21,1.29,1.29,0,0,0-.15.65v.21a1.33,1.33,0,0,0,.14.68.5.5,0,0,0,.44.21.56.56,0,0,0,.41-.13A.53.53,0,0,0,36.1,27Z" transform="translate(0 0)"/><path class="cls-4" d="M37.7,28h-.59V25.14h.59Z" transform="translate(0 0)"/><path class="cls-4" d="M39.88,27.4h-1l-.19.59H38l1.06-2.85h.54L40.7,28h-.62ZM39,26.93h.71l-.36-1.07Z" transform="translate(0 0)"/><path class="cls-4" d="M43.67,26.76H42.55v.76h1.32V28H42V25.14h1.9v.48H42.55v.68h1.12Z" transform="translate(0 0)"/><path class="cls-4" d="M45.23,26.12l.53-1h.68l-.83,1.41L46.46,28h-.68l-.55-1-.55,1H44l.85-1.44L44,25.14h.68Z" transform="translate(0 0)"/><path class="cls-4" d="M47.38,28h-.59V25.14h.59Z" transform="translate(0 0)"/><path class="cls-4" d="M50,25.62h-.87V28h-.59V25.62h-.85v-.48H50Z" transform="translate(0 0)"/><path class="cls-4" d="M52.62,26.63a1.72,1.72,0,0,1-.15.74,1.06,1.06,0,0,1-.43.48,1.11,1.11,0,0,1-.63.18,1.19,1.19,0,0,1-.63-.17,1.14,1.14,0,0,1-.43-.49,1.66,1.66,0,0,1-.15-.72v-.14a1.72,1.72,0,0,1,.15-.74,1.07,1.07,0,0,1,.42-.49,1.21,1.21,0,0,1,1.27,0,1.09,1.09,0,0,1,.43.49,1.7,1.7,0,0,1,.15.73ZM52,26.5a1.18,1.18,0,0,0-.16-.68.52.52,0,0,0-.45-.23.54.54,0,0,0-.46.23,1.14,1.14,0,0,0-.16.67v.14a1.2,1.2,0,0,0,.16.68.52.52,0,0,0,.46.24.5.5,0,0,0,.45-.24,1.12,1.12,0,0,0,.16-.67Z" transform="translate(0 0)"/><path class="cls-4" d="M54.52,27.24A.29.29,0,0,0,54.4,27,1.4,1.4,0,0,0,54,26.8a2.9,2.9,0,0,1-.48-.2.77.77,0,0,1-.49-.7.74.74,0,0,1,.13-.41.81.81,0,0,1,.37-.28,1.42,1.42,0,0,1,.55-.11,1.16,1.16,0,0,1,.54.12.76.76,0,0,1,.37.31.77.77,0,0,1,.14.45h-.59a.38.38,0,0,0-.12-.3.63.63,0,0,0-.68,0,.29.29,0,0,0-.12.24.26.26,0,0,0,.14.23,1.22,1.22,0,0,0,.41.18,1.84,1.84,0,0,1,.73.37.77.77,0,0,1,.23.56.71.71,0,0,1-.28.58,1.25,1.25,0,0,1-.76.21,1.45,1.45,0,0,1-.59-.12.91.91,0,0,1-.41-.33.81.81,0,0,1-.15-.49h.59c0,.32.19.47.56.47a.54.54,0,0,0,.33-.08A.29.29,0,0,0,54.52,27.24Z" transform="translate(0 0)"/><path class="cls-4" d="M57.11,27.4h-1l-.2.59h-.62l1.06-2.85h.54L57.93,28H57.3Zm-.87-.47H57l-.36-1.07Z" transform="translate(0 0)"/></g></g><circle class="cls-5" cx="33.22" cy="49.38" r="12.48"/><path class="cls-6" d="M25.84,50.29l1.93-1.93,3.72,3.31,7.32-7,1.79,1.93-9.38,8.83Z" transform="translate(0 0)"/><g class="cls-7"><path class="cls-8" d="M49,89.39a8.94,8.94,0,1,1-6.4-10.91h0A8.94,8.94,0,0,1,49,89.39Z" transform="translate(0 0)"/><path class="cls-8" d="M46.91,88.84A6.81,6.81,0,1,1,42,80.53h0A6.81,6.81,0,0,1,46.91,88.84Z" transform="translate(0 0)"/><path class="cls-9" d="M47,88.64a3.94,3.94,0,0,1,0-.84,7.2,7.2,0,0,0-.23-2.22,7.05,7.05,0,0,0-.55-1.43,7.23,7.23,0,0,0-1-1.43,7,7,0,0,0-1.5-1.21,5.5,5.5,0,0,0-.91-.45,7.26,7.26,0,0,0-1-.32,7.59,7.59,0,0,0-1-.15,5.79,5.79,0,0,0-1,0,6.77,6.77,0,0,0-3.41,1.28,7.38,7.38,0,0,0-1.12,1A7.19,7.19,0,0,0,34,84.82a3.72,3.72,0,0,1-.33.77,1.84,1.84,0,0,1,.14-.84,6.35,6.35,0,0,1,1.08-2.06,6.83,6.83,0,0,1,3.73-2.42,6.12,6.12,0,0,1,1-.18,6.76,6.76,0,0,1,1.1,0,7.17,7.17,0,0,1,1.13.17,6.74,6.74,0,0,1,1.08.33,7.65,7.65,0,0,1,1,.5,7,7,0,0,1,1.59,1.33,6.83,6.83,0,0,1,1.57,3.1,6.46,6.46,0,0,1,.07,2.32A2,2,0,0,1,47,88.64Z" transform="translate(0 0)"/><path class="cls-9" d="M40,91.24l-.28,1.15-1-.26L39,91a5,5,0,0,1-2.35-1.46l.87-1.11a4.37,4.37,0,0,0,1.82,1.23L39.75,88c-1.07-.56-2.25-1.26-1.89-2.73.27-1.09,1.29-1.83,3-1.61l.28-1.14,1,.25-.28,1.12A4.81,4.81,0,0,1,43.79,85L43,86.12a4.48,4.48,0,0,0-1.44-.92L41.09,87c1.07.55,2.24,1.24,1.88,2.69C42.71,90.71,41.69,91.44,40,91.24Zm.1-4.8L40.49,85c-.58,0-.87.23-1,.57S39.71,86.18,40.13,86.44Zm1.15,2.91c.09-.36-.16-.63-.57-.89l-.35,1.42c.55,0,.84-.2.92-.53Z" transform="translate(0 0)"/></g><g class="cls-7"><path class="cls-8" d="M33.17,85.79a8.94,8.94,0,1,1-11.31-5.66h0A8.92,8.92,0,0,1,33.17,85.79Z" transform="translate(0 0)"/><path class="cls-8" d="M31.15,86.46a6.82,6.82,0,1,1-8.62-4.31h0A6.82,6.82,0,0,1,31.15,86.46Z" transform="translate(0 0)"/><path class="cls-9" d="M31.08,86.26a4.42,4.42,0,0,1-.43-.72,7.38,7.38,0,0,0-1.4-1.74A7.93,7.93,0,0,0,28,82.9a6.74,6.74,0,0,0-1.63-.64,6.47,6.47,0,0,0-1.91-.2,5.69,5.69,0,0,0-1,.12,6.54,6.54,0,0,0-2,.72,6.56,6.56,0,0,0-.85.56,6.73,6.73,0,0,0-1.33,1.39,6.67,6.67,0,0,0-1.2,3,7.24,7.24,0,0,0,.05,2.23,4.64,4.64,0,0,1,.14.83,1.88,1.88,0,0,1-.34-.78,6.26,6.26,0,0,1-.22-2.32,6.8,6.8,0,0,1,1.17-3.26,6.23,6.23,0,0,1,.64-.8,6.66,6.66,0,0,1,.78-.72,6.28,6.28,0,0,1,.91-.61,6.54,6.54,0,0,1,1-.48,6.76,6.76,0,0,1,1.09-.3,6.61,6.61,0,0,1,1.09-.12,6.82,6.82,0,0,1,5.06,2,6.24,6.24,0,0,1,1.33,1.92A1.92,1.92,0,0,1,31.08,86.26Z" transform="translate(0 0)"/><path class="cls-9" d="M26.68,92.22l.39,1.12-1,.34-.38-1.09a5,5,0,0,1-2.77.06l.13-1.4a4.28,4.28,0,0,0,2.19,0l-.58-1.67c-1.21.12-2.58.18-3.07-1.26-.37-1.06.08-2.24,1.6-3l-.38-1.11,1-.35.38,1.1a4.85,4.85,0,0,1,2.24-.1l-.07,1.41a4.28,4.28,0,0,0-1.71,0l.59,1.7c1.19-.12,2.55-.18,3,1.23C28.64,90.32,28.19,91.48,26.68,92.22Zm-2.53-4.08-.5-1.42c-.48.3-.59.66-.48,1S23.65,88.15,24.15,88.14ZM26.7,90c-.12-.36-.47-.45-1-.44l.48,1.38c.47-.29.6-.62.49-1Z" transform="translate(0 0)"/></g><path class="cls-8" d="M42.18,97.88a8.94,8.94,0,1,1-6-11.12h0A8.94,8.94,0,0,1,42.18,97.88Z" transform="translate(0 0)"/><path class="cls-8" d="M40.14,97.27a6.81,6.81,0,1,1-4.58-8.48h0A6.8,6.8,0,0,1,40.14,97.27Z" transform="translate(0 0)"/><path class="cls-9" d="M40.2,97.06a3.82,3.82,0,0,1,.06-.83A7.58,7.58,0,0,0,40.11,94a7.34,7.34,0,0,0-.51-1.45,6.72,6.72,0,0,0-2.41-2.72,6.56,6.56,0,0,0-.9-.49,6.84,6.84,0,0,0-1-.35,7.32,7.32,0,0,0-1-.19,8.69,8.69,0,0,0-1,0,6.83,6.83,0,0,0-1.89.38,6.73,6.73,0,0,0-1.56.79,7,7,0,0,0-2.4,2.85,3.53,3.53,0,0,1-.36.76,2,2,0,0,1,.17-.83,6.39,6.39,0,0,1,1.15-2,7,7,0,0,1,2.84-2,7.45,7.45,0,0,1,2-.43,6.71,6.71,0,0,1,1.1,0,8.19,8.19,0,0,1,1.12.2,7.53,7.53,0,0,1,1.07.38,6.09,6.09,0,0,1,1,.53,6.88,6.88,0,0,1,3,4.53,6.29,6.29,0,0,1,0,2.33A2,2,0,0,1,40.2,97.06Z" transform="translate(0 0)"/><path class="cls-9" d="M33.18,99.42l-.32,1.14-1-.29.31-1.11a5.07,5.07,0,0,1-2.3-1.54l.91-1.08a4.37,4.37,0,0,0,1.77,1.29L33,96.12c-1.05-.59-2.21-1.33-1.8-2.79.31-1.08,1.36-1.78,3-1.51l.33-1.13,1,.29-.32,1.11a4.82,4.82,0,0,1,1.89,1.22l-.87,1.1a4.4,4.4,0,0,0-1.4-1l-.5,1.73c1,.58,2.19,1.32,1.78,2.76C35.87,99,34.84,99.68,33.18,99.42Zm.27-4.79.41-1.45c-.58,0-.87.2-1,.54S33,94.35,33.45,94.63Zm1,3c.1-.36-.14-.63-.54-.91l-.4,1.41c.55,0,.85-.17.94-.5Z" transform="translate(0 0)"/><rect class="cls-10" x="9.48" y="113.85" width="49.62" height="12.22" rx="6.11"/><rect class="cls-11" x="7.68" y="113.85" width="49.62" height="12.22" rx="6.11"/><g class="cls-3"><g class="cls-3"><path class="cls-2" d="M25.93,119.8H24.81V121h-.59v-2.84h1.85v.47H24.81v.74h1.12Z" transform="translate(0 0)"/><path class="cls-2" d="M27,121h-.59v-2.84H27Z" transform="translate(0 0)"/><path class="cls-2" d="M29.89,121h-.58l-1.14-1.87V121h-.59v-2.84h.59L29.31,120v-1.87h.58Z" transform="translate(0 0)"/><path class="cls-2" d="M32,120.37H31l-.2.59H30.2l1.06-2.84h.54L32.87,121h-.63Zm-.86-.47h.71l-.36-1.07Z" transform="translate(0 0)"/><path class="cls-2" d="M33.72,120.49H35V121H33.13v-2.84h.59Z" transform="translate(0 0)"/><path class="cls-2" d="M35.92,121h-.59v-2.84h.59Z" transform="translate(0 0)"/><path class="cls-2" d="M37.08,120.49h1.44V121H36.35v-.34l1.41-2H36.35v-.47h2.14v.33Z" transform="translate(0 0)"/><path class="cls-2" d="M40.52,120.37h-1l-.2.59h-.62l1.06-2.84h.54L41.34,121h-.63Zm-.87-.47h.71L40,118.83Z" transform="translate(0 0)"/><path class="cls-2" d="M42.66,119.92h-.47v1H41.6v-2.84h1.06a1.19,1.19,0,0,1,.78.22.78.78,0,0,1,.27.64.82.82,0,0,1-.13.48.85.85,0,0,1-.38.31l.62,1.16v0h-.63Zm-.47-.48h.47a.45.45,0,0,0,.34-.11.4.4,0,0,0,.12-.31.39.39,0,0,0-.11-.31.46.46,0,0,0-.35-.12h-.47Z" transform="translate(0 0)"/></g></g></svg>